<svg width="24" height="25" xmlns="http://www.w3.org/2000/svg" viewBox="0 0 24 25"><title>Sale, Discount, Promotion</title><g fill="none" class="nc-icon-wrapper"><path fill-rule="evenodd" clip-rule="evenodd" d="M8.80602 19.8902H6.47102C5.26702 19.8902 4.29002 18.9142 4.29002 17.7092V16.2772C4.29002 15.6992 4.06002 15.1442 3.65102 14.7352L2.63802 13.7222C1.78602 12.8702 1.78602 11.4902 2.63802 10.6382L3.65102 9.6252C4.06002 9.2162 4.29002 8.6622 4.29002 8.0832V6.6512C4.29002 5.4472 5.26602 4.4702 6.47102 4.4702H7.90302C8.48102 4.4702 9.03602 4.2402 9.44502 3.8312L10.458 2.8182C11.31 1.9662 12.69 1.9662 13.542 2.8182L14.555 3.8312C14.964 4.2402 15.519 4.4702 16.097 4.4702H17.529C18.733 4.4702 19.71 5.4462 19.71 6.6512V8.0832C19.71 8.6612 19.94 9.2162 20.349 9.6252L21.362 10.6382C22.214 11.4902 22.214 12.8702 21.362 13.7222L20.349 14.7352C19.94 15.1442 19.71 15.6992 19.71 16.2772V17.7092C19.71 18.9132 18.734 19.8902 17.529 19.8902H16.097C15.519 19.8902 14.964 20.1202 14.555 20.5292L13.542 21.5422C12.69 22.3942 11.31 22.3942 10.458 21.5422L8.80602 19.8902Z" stroke="#212121" stroke-width="1.5" stroke-linecap="round" stroke-linejoin="round"></path><path d="M9 15.1802L15 9.18018" stroke="#212121" stroke-width="1.5" stroke-linecap="round" stroke-linejoin="round"></path><path d="M9.249 9.18018C9.111 9.18018 8.999 9.29218 9 9.43018C9 9.56818 9.112 9.68018 9.25 9.68018C9.388 9.68018 9.5 9.56818 9.5 9.43018C9.5 9.29218 9.388 9.18018 9.249 9.18018" stroke="#212121" stroke-width="1.5" stroke-linecap="round" stroke-linejoin="round"></path><path d="M14.749 14.6802C14.611 14.6802 14.499 14.7922 14.5 14.9302C14.5 15.0682 14.612 15.1802 14.75 15.1802C14.888 15.1802 15 15.0682 15 14.9302C15 14.7922 14.888 14.6802 14.749 14.6802" stroke="#212121" stroke-width="1.5" stroke-linecap="round" stroke-linejoin="round"></path></g></svg>